<svg style="display: none;" height="100"><symbol preserveAspectRatio="none" style="color: green;" viewBox="0 0 6560.993 766.274" id="svg-RedPandaTronicsTextOnly"><title>RedPandaTronicsTextOnly</title> <g> <path d="M182.652,0.274c64.559,0,111.955,17.729,142.199,53.186c26.557,30.978,39.84,74.182,39.84,129.603v111.263
		c0,54.208-20.638,100.058-61.906,137.55l85.8,334.398H263.309l-70.237-288.549c-3.275,0-6.742,0-10.42,0h-66.809v288.549H0v-766
		H182.652z M251.913,184.897c0-44.417-22.065-66.636-66.196-66.636h-69.874v245.145h69.874c18.388,0,34.018-6.514,46.889-19.562
		c12.871-13.039,19.307-28.732,19.307-47.072V184.897z"/> <path d="M487.874,766.274v-766h329.755v116.061H603.717v208.909h156.296v116.061H603.717v208.91h213.911v116.06H487.874z"/> <path d="M1261.381,583.021c0,50.5-17.774,93.669-53.324,129.499c-35.55,35.84-78.454,53.754-128.715,53.754H897.303v-766h182.039
		c50.662,0,93.673,17.924,129.021,53.754c35.339,35.839,53.018,78.799,53.018,128.889V583.021z M1013.147,652.045h69.873
		c18.388,0,33.912-6.614,46.583-19.852c12.66-13.229,19-28.805,19-46.729V184.749c0-18.325-6.436-33.997-19.307-47.035
		c-12.872-13.028-28.3-19.546-46.276-19.546h-69.873V652.045z"/> <path fill="#ED1F24" d="M1545.759,0.274c56.39,0,101.334,17.729,134.844,53.186c31.049,33.834,46.582,77.028,46.582,129.603
		v111.263c0,50.54-17.679,93.744-53.018,129.603c-35.349,35.867-78.148,53.797-128.408,53.797h-66.809v288.549h-115.844v-766
		H1545.759z M1615.02,184.897c0-19.964-6.033-36.069-18.081-48.296c-12.058-12.226-28.1-18.34-48.115-18.34h-69.873v245.145h69.873
		c18.388,0,34.018-6.514,46.889-19.562c12.872-13.039,19.308-28.732,19.308-47.072V184.897z"/> <path fill="#ED1F24" d="M1894.336,590.21l-28.146,176.063h-120.622l130.563-766h159.351l128.705,766h-121.8l-27.103-176.063
		H1894.336z M1955.189,175.727l-42.905,301.998h85.811L1955.189,175.727z"/> <path fill="#ED1F24" d="M2391.69,0l153.729,514.984V0h115.843v766.274h-124.424l-159.36-490.684v490.684h-115.844V0H2391.69z"/> <path fill="#ED1F24" d="M3128.915,583.021c0,50.5-17.774,93.669-53.324,129.499c-35.55,35.84-78.454,53.754-128.715,53.754
		h-182.039v-766h182.039c50.662,0,93.673,17.924,129.021,53.754c35.339,35.839,53.018,78.799,53.018,128.889V583.021z
		 M2880.68,652.045h69.873c18.388,0,33.912-6.614,46.583-19.852c12.66-13.229,19-28.805,19-46.729V184.749
		c0-18.325-6.436-33.997-19.307-47.035c-12.872-13.028-28.3-19.546-46.276-19.546h-69.873V652.045z"/> <path fill="#ED1F24" d="M3357.351,590.21l-28.146,176.063h-120.622l130.563-766h159.351l128.705,766h-121.8l-27.103-176.063
		H3357.351z M3418.204,175.727l-42.905,301.998h85.811L3418.204,175.727z"/> <path d="M3739.38,116.427h-123.199V0.274h361.628v116.153h-122.585v649.847H3739.38V116.427z"/> <path d="M4253.617,0.274c64.559,0,111.955,17.729,142.199,53.186c26.557,30.978,39.84,74.182,39.84,129.603v111.263
		c0,54.208-20.639,100.058-61.905,137.55l85.8,334.398h-125.276l-70.237-288.549c-3.275,0-6.742,0-10.42,0h-66.809v288.549h-115.844
		v-766H4253.617z M4322.877,184.897c0-44.417-22.065-66.636-66.196-66.636h-69.873v245.145h69.873
		c18.387,0,34.018-6.514,46.889-19.562c12.873-13.039,19.308-28.732,19.308-47.072V184.897z"/> <path d="M4722.496,0.274c51.072,0,94.486,17.506,130.246,52.499c35.751,35.002,53.632,77.164,53.632,126.474v408.056
		c0,49.722-17.987,91.974-53.938,126.772c-35.961,34.807-79.277,52.199-129.939,52.199c-51.084,0-94.391-17.496-129.94-52.499
		c-35.55-34.993-53.325-77.152-53.325-126.473V179.246c0-49.712,17.977-91.966,53.938-126.772
		C4629.119,17.677,4672.236,0.274,4722.496,0.274z M4785.626,176.859c0-17.897-6.436-33.11-19.307-45.638
		c-12.872-12.528-28.502-18.792-46.89-18.792s-34.122,6.264-47.194,18.792c-13.084,12.528-19.614,27.741-19.614,45.638v409.249
		c0,17.898,6.53,33.11,19.614,45.638c13.072,12.53,28.807,18.794,47.194,18.794s34.018-6.264,46.89-18.794
		c12.871-12.527,19.307-27.739,19.307-45.638V176.859z"/> <path d="M5138.158-0.335l153.729,515.209V-0.335h115.844v766.609h-124.424l-159.36-490.898v490.898h-115.845V-0.335H5138.158z"/> <path d="M5627.148,766.274h-115.844v-766h115.844V766.274z"/> <path d="M5913.38,766.274c-51.082,0-94.496-17.407-130.245-52.241c-35.761-34.823-53.632-76.914-53.632-126.272V179.385
		c0-49.75,17.977-92.037,53.938-126.871c35.952-34.824,79.27-52.241,129.939-52.241c51.075,0,94.392,17.52,129.941,52.54
		c35.549,35.029,53.324,77.223,53.324,126.572v85.376h-120.133v-87.765c0-17.911-6.541-33.229-19.613-45.971
		c-13.082-12.733-28.808-19.105-47.197-19.105c-18.387,0-34.016,6.372-46.887,19.105c-12.873,12.743-19.308,28.061-19.308,45.971
		v409.569c0,17.91,6.435,33.135,19.308,45.673c12.871,12.538,28.5,18.808,46.887,18.808c18.39,0,34.115-6.27,47.197-18.808
		c13.072-12.538,19.613-27.763,19.613-45.673V483.278h120.133V587.76c0,49.759-17.986,91.944-53.936,126.571
		C6006.748,748.959,5963.641,766.274,5913.38,766.274z"/> <path d="M6559.397,571.195c0.814,52.106-13.081,96.645-41.679,133.631c-18.8,25.057-45.356,42.759-79.681,53.097
		c-18.388,5.564-39.84,8.352-64.357,8.352c-45.356,0-82.955-10.935-112.778-32.812c-24.929-17.896-44.647-42.253-59.147-73.079
		c-14.509-30.817-22.985-66.117-25.437-105.892l110.327-7.756c4.903,43.579,16.749,75.16,35.55,94.744
		c13.887,14.793,29.822,21.793,47.808,20.991c25.331-0.792,45.558-12.938,60.679-36.428c7.759-11.542,11.646-28.059,11.646-49.553
		c0-31.051-14.51-61.904-43.518-92.554c-22.889-21.094-57.213-52.739-102.972-94.938c-38.413-36.224-65.583-68.671-81.519-97.335
		c-17.162-32.243-25.742-67.272-25.742-105.09c0-68.065,23.491-119.623,70.484-154.653c29.01-21.094,64.972-31.646,107.875-31.646
		c41.269,0,76.617,8.949,106.037,26.846c22.879,13.927,41.373,33.409,55.469,58.464c14.099,25.056,22.574,53.896,25.438,86.503
		l-110.939,19.687c-3.275-30.622-12.26-54.484-26.969-71.589c-10.631-12.323-25.953-18.494-45.97-18.494
		c-21.251,0-37.388,9.154-48.421,27.442c-8.992,14.72-13.484,33.017-13.484,54.885c0,34.21,15.111,69.007,45.356,104.401
		c11.435,13.525,28.597,29.437,51.486,47.726c26.968,21.877,44.743,37.192,53.324,45.936c28.597,27.844,50.661,55.286,66.196,82.327
		c7.355,12.733,13.273,24.459,17.775,35.198C6553.268,526.256,6558.986,550.119,6559.397,571.195z"/> </g> </symbol></svg>